<?xml version="1.0" encoding="UTF-8"?>
<svg xmlns="http://www.w3.org/2000/svg" version="1.1" viewBox="0 0 11.8 17.8">
  <defs>
    <style>
      .cls-1 {
        stroke: #000;
        stroke-miterlimit: 10;
        stroke-width: .8px;
      }
    </style>
  </defs>
  <!-- Generator: Adobe Illustrator 28.6.0, SVG Export Plug-In . SVG Version: 1.2.0 Build 709)  -->
  <g>
    <g id="Layer_1">
      <path class="cls-1" d="M5.9,1.4C3.4,1.4,1.4,3.5,1.4,6.4s-.2.5-.5.5-.5-.2-.5-.5C.4,3,2.8.4,5.9.4s5.5,2.7,5.5,6-.3,2.2-.6,3c-.1.3-.3.6-.4.9,0,0,0,.2-.1.2-.2.4-.3.7-.4,1-.1.4-.2.7-.3,1.2,0,.2,0,.3-.1.5-.1.6-.3,1.3-.7,1.9-.6,1.1-1.3,1.7-2.2,2-.9.3-1.9.3-3.2.3s-.5-.2-.5-.5.2-.5.5-.5c1.3,0,2.2,0,2.9-.2.6-.2,1.2-.6,1.7-1.5.3-.5.4-1,.6-1.6,0-.1,0-.3,0-.5,0-.4.2-.9.3-1.3.1-.4.3-.8.4-1.1,0,0,0-.2.1-.2.1-.3.3-.6.4-.9.3-.7.5-1.6.5-2.6,0-2.9-2.1-5-4.5-5Z"/>
      <path class="cls-1" d="M5.9,4.9c-.8,0-1.5.6-1.5,1.5v1c.6,0,1,.3,1.4.7.4.5.6,1.1.6,1.8s-.2,1.3-.6,1.8c-.4.5-1.1.7-1.9.7s-.5-.2-.5-.5.2-.5.5-.5c.5,0,.9-.2,1.1-.4.2-.3.4-.6.4-1.1s-.1-.8-.4-1.1c-.1-.2-.4-.3-.6-.4v.4c0,.3-.2.5-.5.5s-.5-.2-.5-.5v-2.5c0-1.5,1.1-2.5,2.5-2.5s2.5,1,2.5,2.5-.2.5-.5.5-.5-.2-.5-.5c0-.9-.7-1.5-1.5-1.5Z"/>
    </g>
  </g>
</svg>