<?xml version="1.0" encoding="UTF-8"?>
<svg xmlns="http://www.w3.org/2000/svg" version="1.1" viewBox="0 0 90 90">
  <!-- Generator: Adobe Illustrator 28.6.0, SVG Export Plug-In . SVG Version: 1.2.0 Build 709)  -->
  <g>
    <g id="Layer_1">
      <path d="M41.9,87c-.8,1.9-2.7,3-4.6,3s-1.4-.1-2-.4c-7.7-3.4-14.7-8.2-20.6-14.2-6-6-10.8-12.9-14.2-20.6-1.1-2.5,0-5.5,2.6-6.7,2.5-1.1,5.5,0,6.6,2.6,2.9,6.6,6.9,12.5,12.1,17.6,5.1,5.1,11,9.2,17.6,12.1,2.5,1.1,3.7,4.1,2.6,6.7ZM69,72.2c-2.2.3-4.3.5-6.5.5-11.9,0-23.3-4.7-31.9-13.3-10.1-10.1-14.8-24.1-12.8-38.4.4-2.8-1.5-5.3-4.3-5.7-2.8-.4-5.3,1.5-5.7,4.3-1.2,8.3-.4,16.9,2.2,24.9,2.7,8.4,7.3,15.8,13.5,22,6.3,6.3,13.7,10.8,22,13.5,5.5,1.8,11.4,2.7,17.2,2.7s5.2-.2,7.7-.5c2.8-.4,4.7-2.9,4.3-5.7-.4-2.8-2.9-4.7-5.7-4.3ZM80.2,55c-5.3,3.4-11.4,5.1-17.5,5.1s-16.9-3.3-23.2-9.5c-10.8-10.8-12.6-27.9-4.5-40.7,1.5-2.3.8-5.5-1.5-7-2.3-1.5-5.5-.8-7,1.5-5.2,8.1-7.4,17.8-6.5,27.4,1,9.7,5.4,18.9,12.3,25.8,6.9,6.9,16.1,11.3,25.8,12.3,1.5.2,2.9.2,4.4.2,8.1,0,16.2-2.3,23-6.7,2.3-1.5,3-4.6,1.5-7s-4.6-3-7-1.5ZM87.3,34.5c-2.5-1.3-5.5-.3-6.8,2.1-.9,1.8-2.2,3.5-3.6,4.9-3.8,3.8-8.9,5.9-14.2,5.9h0c-5.4,0-10.4-2.1-14.2-5.9-7.8-7.8-7.8-20.6,0-28.5,1.5-1.5,3.1-2.7,4.9-3.6,2.5-1.3,3.4-4.3,2.1-6.8-1.3-2.5-4.3-3.4-6.8-2.1-2.7,1.4-5.2,3.2-7.4,5.4-11.8,11.8-11.8,30.9,0,42.7s13.3,8.9,21.4,8.9h0c8.1,0,15.7-3.1,21.4-8.8s4-4.7,5.4-7.4c1.3-2.5.3-5.5-2.1-6.8ZM50.2,14.9c3.3-3.3,7.8-5.2,12.5-5.2s9.1,1.8,12.5,5.2c6.9,6.9,6.9,18.1,0,24.9-3.3,3.3-7.8,5.2-12.5,5.2h0c-4.7,0-9.1-1.8-12.5-5.2-6.9-6.9-6.9-18.1,0-24.9ZM57.3,32.7c1.4,1.4,3.3,2.2,5.3,2.2s3.9-.8,5.3-2.2c2.9-2.9,2.9-7.7,0-10.7-1.4-1.4-3.3-2.2-5.3-2.2s-3.9.8-5.3,2.2c-2.9,2.9-2.9,7.7,0,10.7Z"/>
    </g>
  </g>
</svg>