<?xml version="1.0" encoding="UTF-8"?>
<svg xmlns="http://www.w3.org/2000/svg" version="1.1" viewBox="0 0 80 80">
  <defs>
    <style>
      .cls-1 {
        font-family: Helvetica-Bold, Helvetica;
        font-size: 5px;
        font-weight: 700;
        isolation: isolate;
      }
    </style>
  </defs>
  <!-- Generator: Adobe Illustrator 28.6.0, SVG Export Plug-In . SVG Version: 1.2.0 Build 709)  -->
  <g>
    <g id="Layer_1">
      <g>
        <path d="M63.9,47.9H16.1C7.2,47.9,0,55.1,0,63.9s7.2,16.1,16.1,16.1h47.9c8.9,0,16.1-7.2,16.1-16.1s-7.2-16.1-16.1-16.1h0ZM16.1,76.4c-6.9,0-12.4-5.6-12.4-12.4s5.6-12.4,12.4-12.4,12.4,5.6,12.4,12.4-5.6,12.4-12.4,12.4Z"/>
        <path d="M63.9,0H16.1C7.2,0,0,7.2,0,16.1s7.2,16.1,16.1,16.1h47.9c8.9,0,16.1-7.2,16.1-16.1S72.8,0,63.9,0h0ZM63.9,28.5c-6.9,0-12.4-5.6-12.4-12.4s5.6-12.4,12.4-12.4,12.4,5.6,12.4,12.4-5.6,12.4-12.4,12.4Z"/>
      </g>
      <text class="cls-1" transform="translate(-10 112.5)"><tspan x="0" y="0">from Noun Project</tspan></text>
    </g>
  </g>
</svg>